<svg width="400" height="152" viewBox="0 0 400 152" fill="none" xmlns="http://www.w3.org/2000/svg">
<path d="M143.301 100.361V50.5332H165.183C170.851 50.5332 175.195 52.0896 178.215 55.2024C181.188 58.2687 182.675 62.0551 182.675 66.5616C182.675 71.3005 181.188 75.1101 178.215 77.9906C175.241 80.8711 171.176 82.3113 166.019 82.3113H153.754V100.361H143.301ZM153.754 59.314V74.088H164.207C166.809 74.088 168.807 73.4376 170.201 72.1367C171.594 70.7894 172.291 68.9543 172.291 66.6313C172.291 64.3084 171.594 62.5197 170.201 61.2653C168.807 59.9644 166.856 59.314 164.347 59.314H153.754Z" fill="#2A334A"/>
<path d="M208.055 100.361C207.59 99.7567 207.218 98.4326 206.94 96.3884H206.8C205.778 97.9216 204.477 99.1063 202.898 99.9426C201.318 100.779 199.111 101.197 196.277 101.197C192.514 101.197 189.494 100.245 187.218 98.3397C184.941 96.4349 183.803 93.7403 183.803 90.2558C183.803 86.632 185.057 83.9838 187.566 82.3113C190.075 80.5923 193.606 79.4076 198.159 78.7572C201.504 78.2926 203.781 77.828 204.988 77.3634C206.196 76.8523 206.8 75.9696 206.8 74.7152C206.8 73.4144 206.289 72.3923 205.267 71.6489C204.245 70.8591 202.758 70.4642 200.807 70.4642C196.486 70.4642 194.187 72.1367 193.908 75.4818H185.476C185.615 72.0903 186.985 69.2795 189.587 67.0494C192.189 64.8194 195.952 63.7044 200.877 63.7044C210.912 63.7044 215.93 68.0948 215.93 76.8756V95.0643C215.93 97.759 216.348 99.4083 217.184 100.012V100.361H208.055ZM198.577 94.5765C201.179 94.5765 203.223 93.9029 204.71 92.5555C206.243 91.2082 207.009 89.6054 207.009 87.747V82.381C205.987 82.985 203.78 83.6818 200.389 84.4716C197.694 85.0756 195.79 85.7725 194.674 86.5623C193.559 87.3057 193.002 88.4671 193.002 90.0468C193.002 93.0666 194.86 94.5765 198.577 94.5765Z" fill="#2A334A"/>
<path d="M231.084 64.6103V70.3248H231.293C232.408 68.2342 233.639 66.701 234.987 65.7254C236.334 64.7033 238.03 64.1922 240.074 64.1922C241.05 64.1922 241.793 64.2851 242.304 64.471V72.7639H242.095C238.889 72.4387 236.311 73.1356 234.36 74.8546C232.408 76.5736 231.433 79.2682 231.433 82.9385V100.361H221.955V64.6103H231.084Z" fill="#2A334A"/>
<path d="M244.636 70.8823V64.6103H249.584V53.4601H258.853V64.6103H264.986V70.8823H258.853V89.8377C258.853 92.2071 260.038 93.3918 262.407 93.3918L265.195 93.3221V100.291C263.754 100.384 261.78 100.43 259.271 100.43C256.53 100.43 254.23 99.78 252.372 98.4791C250.514 97.1318 249.584 94.925 249.584 91.8587V70.8823H244.636Z" fill="#2A334A"/>
<path d="M279.135 64.6103V69.4886H279.344C281.806 65.586 285.337 63.6347 289.936 63.6347C293.607 63.6347 296.58 64.8891 298.857 67.3979C301.133 69.8602 302.271 73.0659 302.271 77.0149V100.361H292.794V78.4087C292.794 76.4574 292.236 74.8778 291.121 73.6699C290.053 72.4619 288.543 71.858 286.591 71.858C284.501 71.858 282.758 72.6246 281.365 74.1577C280.017 75.6909 279.344 77.6654 279.344 80.0813V100.361H269.866V64.6103H279.135Z" fill="#2A334A"/>
<path d="M324.908 101.406C319.147 101.406 314.617 99.6406 311.319 96.1097C308.02 92.5323 306.371 87.9793 306.371 82.4507C306.371 77.1079 308.02 72.6478 311.319 69.0704C314.617 65.4466 318.845 63.6347 324.002 63.6347C329.624 63.6347 333.968 65.586 337.034 69.4886C340.1 73.3911 341.633 78.6178 341.633 85.1685H315.709C316.081 88.0025 317.033 90.2094 318.567 91.789C320.1 93.3221 322.19 94.0887 324.839 94.0887C328.323 94.0887 330.623 92.6252 331.738 89.6983H341.076C340.379 93.0434 338.614 95.8309 335.78 98.061C332.946 100.291 329.322 101.406 324.908 101.406ZM324.142 70.952C319.542 70.952 316.778 73.5073 315.849 78.6178H331.738C331.598 76.3413 330.832 74.5061 329.438 73.1124C328.044 71.6721 326.279 70.952 324.142 70.952Z" fill="#2A334A"/>
<path d="M355.149 64.6103V70.3248H355.358C356.473 68.2342 357.705 66.701 359.052 65.7254C360.399 64.7033 362.095 64.1922 364.139 64.1922C365.115 64.1922 365.858 64.2851 366.369 64.471V72.7639H366.16C362.954 72.4387 360.376 73.1356 358.425 74.8546C356.473 76.5736 355.498 79.2682 355.498 82.9385V100.361H346.02V64.6103H355.149Z" fill="#2A334A"/>
<path d="M384.947 101.406C379.837 101.406 375.841 100.291 372.961 98.061C370.08 95.7845 368.501 92.6949 368.222 88.7924H377.003C377.607 92.7414 380.208 94.7159 384.808 94.7159C386.899 94.7159 388.501 94.3442 389.616 93.6009C390.778 92.8575 391.359 91.8587 391.359 90.6043C391.359 90.1397 391.266 89.7215 391.08 89.3499C390.94 88.9782 390.662 88.653 390.244 88.3742C389.872 88.049 389.524 87.7935 389.198 87.6076C388.92 87.4218 388.408 87.236 387.665 87.0501C386.922 86.8643 386.341 86.7249 385.923 86.632C385.551 86.5391 384.878 86.4229 383.902 86.2836C382.973 86.0977 382.322 85.9583 381.951 85.8654C379.999 85.4938 378.397 85.1221 377.142 84.7504C375.934 84.3323 374.657 83.7515 373.309 83.0082C371.962 82.2184 370.94 81.173 370.243 79.8722C369.592 78.5249 369.267 76.922 369.267 75.0637C369.267 71.3469 370.615 68.5129 373.309 66.5616C376.05 64.6103 379.558 63.6347 383.832 63.6347C388.432 63.6347 392.032 64.7033 394.634 66.8404C397.282 68.931 398.792 71.8115 399.164 75.4818H390.592C390.22 71.9974 387.921 70.2551 383.693 70.2551C381.788 70.2551 380.278 70.6036 379.163 71.3005C378.095 71.9974 377.56 72.973 377.56 74.2274C377.56 74.6455 377.63 75.0404 377.769 75.4121C377.955 75.7373 378.234 76.0393 378.606 76.3181C379.024 76.5504 379.419 76.7594 379.79 76.9453C380.162 77.0846 380.696 77.2472 381.393 77.4331C382.09 77.5725 382.694 77.7118 383.205 77.8512C383.716 77.9441 384.413 78.0835 385.296 78.2693C386.178 78.4087 386.875 78.5249 387.386 78.6178C388.873 78.943 390.081 79.245 391.01 79.5237C391.986 79.756 393.101 80.1742 394.355 80.7781C395.61 81.3357 396.585 81.9861 397.282 82.7294C398.026 83.4263 398.653 84.402 399.164 85.6564C399.721 86.8643 400 88.2813 400 89.9074C400 93.4383 398.606 96.2491 395.819 98.3397C393.078 100.384 389.454 101.406 384.947 101.406Z" fill="#2A334A"/>
<path d="M22.6562 100.361V50.5339H32.7611V100.361H22.6562Z" fill="#2A334A"/>
<path d="M54.5623 101.407C49.2659 101.407 45.1775 100.129 42.2971 97.5738C39.4166 94.9721 37.9764 91.627 37.9764 87.5386C37.9764 81.3595 41.6466 76.4116 48.9872 72.6949C46.1996 69.3034 44.8059 65.8654 44.8059 62.381C44.8059 59.0824 45.9906 56.3413 48.36 54.1577C50.7759 51.9741 53.8886 50.8823 57.6983 50.8823C61.5079 50.8823 64.6207 51.9509 67.0366 54.088C69.4989 56.1787 70.7301 58.9198 70.7301 62.3113C70.7301 65.1917 69.9867 67.5379 68.5 69.3498C67.0134 71.1153 64.7833 72.7646 61.8099 74.2977L68.4304 82.8695C69.4525 80.2678 70.1029 77.5731 70.3816 74.7856H78.814C78.3959 80.593 76.8162 85.7267 74.0751 90.1868L81.95 100.361H70.3816L67.8032 97.086C63.9006 99.9665 59.487 101.407 54.5623 101.407ZM54.9107 93.6015C57.8841 93.6015 60.5323 92.6259 62.8553 90.6746L53.726 78.7578C49.9164 81.0808 48.0115 83.9148 48.0115 87.2599C48.0115 89.1182 48.662 90.6514 49.9628 91.8593C51.3101 93.0208 52.9594 93.6015 54.9107 93.6015ZM53.9351 62.5203C53.9351 64.4716 55.143 66.6088 57.5589 68.9317C60.3465 67.2592 61.7402 65.0988 61.7402 62.4507C61.7402 61.2892 61.3453 60.3368 60.5555 59.5934C59.8122 58.8501 58.9062 58.4784 57.8377 58.4784C56.7226 58.4784 55.7935 58.8733 55.0501 59.6631C54.3068 60.4065 53.9351 61.3589 53.9351 62.5203Z" fill="#2A334A"/>
<path d="M125.183 94.2287C120.815 99.0605 115.008 101.476 107.76 101.476C100.513 101.476 94.6822 99.0605 90.2685 94.2287C85.9014 89.3505 83.7178 83.125 83.7178 75.5521C83.7178 67.9793 85.9014 61.7538 90.2685 56.8756C94.6822 51.9973 100.513 49.5582 107.76 49.5582C115.008 49.5582 120.815 51.9973 125.183 56.8756C129.55 61.7538 131.733 67.9793 131.733 75.5521C131.733 83.125 129.55 89.3505 125.183 94.2287ZM97.5859 88.2355C100.002 91.5341 103.416 93.1834 107.83 93.1834C112.244 93.1834 115.612 91.5573 117.935 88.3052C120.258 85.0066 121.419 80.7556 121.419 75.5521C121.419 70.3487 120.258 66.0977 117.935 62.7991C115.612 59.5005 112.244 57.8512 107.83 57.8512C103.416 57.8512 100.002 59.5005 97.5859 62.7991C95.2164 66.0977 94.0317 70.3487 94.0317 75.5521C94.0317 80.7091 95.2164 84.9369 97.5859 88.2355Z" fill="#2A334A"/>
<path fill-rule="evenodd" clip-rule="evenodd" d="M7.55173 7.55173H143.483V28.319H151.035V7.55173V0H143.483H7.55173H0V7.55173V143.483V151.035H7.55173H143.483H151.035V143.483V122.716H143.483V143.483H7.55173V7.55173Z" fill="#2A334A"/>
</svg>
